<svg id="visual" viewBox="0 0 900 600" width="900" height="600" xmlns="http://www.w3.org/2000/svg" xmlns:xlink="http://www.w3.org/1999/xlink" version="1.1"><path d="M0 115L8.3 103C16.7 91 33.3 67 50 56C66.7 45 83.3 47 100 54C116.7 61 133.3 73 150 76C166.7 79 183.3 73 200 70C216.7 67 233.3 67 250 61C266.7 55 283.3 43 300 50C316.7 57 333.3 83 350 88C366.7 93 383.3 77 400 74C416.7 71 433.3 81 450 87C466.7 93 483.3 95 500 95C516.7 95 533.3 93 550 84C566.7 75 583.3 59 600 62C616.7 65 633.3 87 650 92C666.7 97 683.3 85 700 82C716.7 79 733.3 85 750 76C766.7 67 783.3 43 800 31C816.7 19 833.3 19 850 26C866.7 33 883.3 47 891.7 54L900 61L900 0L891.7 0C883.3 0 866.7 0 850 0C833.3 0 816.7 0 800 0C783.3 0 766.7 0 750 0C733.3 0 716.7 0 700 0C683.3 0 666.7 0 650 0C633.3 0 616.7 0 600 0C583.3 0 566.7 0 550 0C533.3 0 516.7 0 500 0C483.3 0 466.7 0 450 0C433.3 0 416.7 0 400 0C383.3 0 366.7 0 350 0C333.3 0 316.7 0 300 0C283.3 0 266.7 0 250 0C233.3 0 216.7 0 200 0C183.3 0 166.7 0 150 0C133.3 0 116.7 0 100 0C83.3 0 66.7 0 50 0C33.3 0 16.7 0 8.3 0L0 0Z" fill="#6198ff"></path><path d="M0 139L8.3 133C16.7 127 33.3 115 50 108C66.7 101 83.3 99 100 109C116.7 119 133.3 141 150 152C166.7 163 183.3 163 200 157C216.7 151 233.3 139 250 133C266.7 127 283.3 127 300 127C316.7 127 333.3 127 350 123C366.7 119 383.3 111 400 109C416.7 107 433.3 111 450 118C466.7 125 483.3 135 500 143C516.7 151 533.3 157 550 154C566.7 151 583.3 139 600 135C616.7 131 633.3 135 650 139C666.7 143 683.3 147 700 144C716.7 141 733.3 131 750 122C766.7 113 783.3 105 800 94C816.7 83 833.3 69 850 77C866.7 85 883.3 115 891.7 130L900 145L900 59L891.7 52C883.3 45 866.7 31 850 24C833.3 17 816.7 17 800 29C783.3 41 766.7 65 750 74C733.3 83 716.7 77 700 80C683.3 83 666.7 95 650 90C633.3 85 616.7 63 600 60C583.3 57 566.7 73 550 82C533.3 91 516.7 93 500 93C483.3 93 466.7 91 450 85C433.3 79 416.7 69 400 72C383.3 75 366.7 91 350 86C333.3 81 316.7 55 300 48C283.3 41 266.7 53 250 59C233.3 65 216.7 65 200 68C183.3 71 166.7 77 150 74C133.3 71 116.7 59 100 52C83.3 45 66.7 43 50 54C33.3 65 16.7 89 8.3 101L0 113Z" fill="#4385ff"></path><path d="M0 289L8.3 279C16.7 269 33.3 249 50 222C66.7 195 83.3 161 100 156C116.7 151 133.3 175 150 196C166.7 217 183.3 235 200 238C216.7 241 233.3 229 250 226C266.7 223 283.3 229 300 227C316.7 225 333.3 215 350 198C366.7 181 383.3 157 400 164C416.7 171 433.3 209 450 215C466.7 221 483.3 195 500 189C516.7 183 533.3 197 550 196C566.7 195 583.3 179 600 185C616.7 191 633.3 219 650 222C666.7 225 683.3 203 700 208C716.7 213 733.3 245 750 248C766.7 251 783.3 225 800 196C816.7 167 833.3 135 850 133C866.7 131 883.3 159 891.7 173L900 187L900 143L891.7 128C883.3 113 866.7 83 850 75C833.3 67 816.7 81 800 92C783.3 103 766.7 111 750 120C733.3 129 716.7 139 700 142C683.3 145 666.7 141 650 137C633.3 133 616.7 129 600 133C583.3 137 566.7 149 550 152C533.3 155 516.7 149 500 141C483.3 133 466.7 123 450 116C433.3 109 416.7 105 400 107C383.3 109 366.7 117 350 121C333.3 125 316.7 125 300 125C283.3 125 266.7 125 250 131C233.3 137 216.7 149 200 155C183.3 161 166.7 161 150 150C133.3 139 116.7 117 100 107C83.3 97 66.7 99 50 106C33.3 113 16.7 125 8.3 131L0 137Z" fill="#2071ff"></path><path d="M0 343L8.3 336C16.7 329 33.3 315 50 286C66.7 257 83.3 213 100 214C116.7 215 133.3 261 150 283C166.7 305 183.3 303 200 295C216.7 287 233.3 273 250 267C266.7 261 283.3 263 300 268C316.7 273 333.3 281 350 272C366.7 263 383.3 237 400 248C416.7 259 433.3 307 450 314C466.7 321 483.3 287 500 275C516.7 263 533.3 273 550 275C566.7 277 583.3 271 600 278C616.7 285 633.3 305 650 311C666.7 317 683.3 309 700 313C716.7 317 733.3 333 750 330C766.7 327 783.3 305 800 286C816.7 267 833.3 251 850 248C866.7 245 883.3 255 891.7 260L900 265L900 185L891.7 171C883.3 157 866.7 129 850 131C833.3 133 816.7 165 800 194C783.3 223 766.7 249 750 246C733.3 243 716.7 211 700 206C683.3 201 666.7 223 650 220C633.3 217 616.7 189 600 183C583.3 177 566.7 193 550 194C533.3 195 516.7 181 500 187C483.3 193 466.7 219 450 213C433.3 207 416.7 169 400 162C383.3 155 366.7 179 350 196C333.3 213 316.7 223 300 225C283.3 227 266.7 221 250 224C233.3 227 216.7 239 200 236C183.3 233 166.7 215 150 194C133.3 173 116.7 149 100 154C83.3 159 66.7 193 50 220C33.3 247 16.7 267 8.3 277L0 287Z" fill="#0061f1"></path><path d="M0 559L8.3 530C16.7 501 33.3 443 50 435C66.7 427 83.3 469 100 486C116.7 503 133.3 495 150 477C166.7 459 183.3 431 200 436C216.7 441 233.3 479 250 470C266.7 461 283.3 405 300 376C316.7 347 333.3 345 350 368C366.7 391 383.3 439 400 476C416.7 513 433.3 539 450 521C466.7 503 483.3 441 500 406C516.7 371 533.3 363 550 365C566.7 367 583.3 379 600 384C616.7 389 633.3 387 650 396C666.7 405 683.3 425 700 427C716.7 429 733.3 413 750 421C766.7 429 783.3 461 800 486C816.7 511 833.3 529 850 507C866.7 485 883.3 423 891.7 392L900 361L900 263L891.7 258C883.3 253 866.7 243 850 246C833.3 249 816.7 265 800 284C783.3 303 766.7 325 750 328C733.3 331 716.7 315 700 311C683.3 307 666.7 315 650 309C633.3 303 616.7 283 600 276C583.3 269 566.7 275 550 273C533.3 271 516.7 261 500 273C483.3 285 466.7 319 450 312C433.3 305 416.7 257 400 246C383.3 235 366.7 261 350 270C333.3 279 316.7 271 300 266C283.3 261 266.7 259 250 265C233.3 271 216.7 285 200 293C183.3 301 166.7 303 150 281C133.3 259 116.7 213 100 212C83.3 211 66.7 255 50 284C33.3 313 16.7 327 8.3 334L0 341Z" fill="#0056d6"></path><path d="M0 601L8.3 601C16.7 601 33.3 601 50 601C66.7 601 83.3 601 100 601C116.7 601 133.3 601 150 601C166.7 601 183.3 601 200 601C216.7 601 233.3 601 250 601C266.7 601 283.3 601 300 601C316.7 601 333.3 601 350 601C366.7 601 383.3 601 400 601C416.7 601 433.3 601 450 601C466.7 601 483.3 601 500 601C516.7 601 533.3 601 550 601C566.7 601 583.3 601 600 601C616.7 601 633.3 601 650 601C666.7 601 683.3 601 700 601C716.7 601 733.3 601 750 601C766.7 601 783.3 601 800 601C816.7 601 833.3 601 850 601C866.7 601 883.3 601 891.7 601L900 601L900 359L891.7 390C883.3 421 866.7 483 850 505C833.3 527 816.7 509 800 484C783.3 459 766.7 427 750 419C733.3 411 716.7 427 700 425C683.3 423 666.7 403 650 394C633.3 385 616.7 387 600 382C583.3 377 566.7 365 550 363C533.3 361 516.7 369 500 404C483.3 439 466.7 501 450 519C433.3 537 416.7 511 400 474C383.3 437 366.7 389 350 366C333.3 343 316.7 345 300 374C283.3 403 266.7 459 250 468C233.3 477 216.7 439 200 434C183.3 429 166.7 457 150 475C133.3 493 116.7 501 100 484C83.3 467 66.7 425 50 433C33.3 441 16.7 499 8.3 528L0 557Z" fill="#004cbb"></path></svg>