<svg id="visual" viewBox="0 0 900 600" width="900" height="600" xmlns="http://www.w3.org/2000/svg" xmlns:xlink="http://www.w3.org/1999/xlink" version="1.1"><path d="M0 49L56 67L113 67L169 49L225 49L281 49L338 61L394 55L450 61L506 67L563 67L619 55L675 55L731 55L788 55L844 49L900 61L900 0L844 0L788 0L731 0L675 0L619 0L563 0L506 0L450 0L394 0L338 0L281 0L225 0L169 0L113 0L56 0L0 0Z" fill="#001122"></path><path d="M0 181L56 187L113 211L169 229L225 205L281 175L338 193L394 181L450 229L506 223L563 199L619 199L675 205L731 223L788 193L844 175L900 181L900 59L844 47L788 53L731 53L675 53L619 53L563 65L506 65L450 59L394 53L338 59L281 47L225 47L169 47L113 65L56 65L0 47Z" fill="#00244b"></path><path d="M0 247L56 265L113 283L169 289L225 289L281 265L338 265L394 265L450 313L506 289L563 265L619 277L675 277L731 307L788 271L844 235L900 241L900 179L844 173L788 191L731 221L675 203L619 197L563 197L506 221L450 227L394 179L338 191L281 173L225 203L169 227L113 209L56 185L0 179Z" fill="#003676"></path><path d="M0 445L56 427L113 433L169 439L225 451L281 457L338 421L394 433L450 463L506 433L563 439L619 433L675 433L731 445L788 433L844 433L900 427L900 239L844 233L788 269L731 305L675 275L619 275L563 263L506 287L450 311L394 263L338 263L281 263L225 287L169 287L113 281L56 263L0 245Z" fill="#0046a2"></path><path d="M0 529L56 535L113 547L169 535L225 529L281 541L338 529L394 541L450 547L506 553L563 529L619 547L675 535L731 535L788 529L844 541L900 547L900 425L844 431L788 431L731 443L675 431L619 431L563 437L506 431L450 461L394 431L338 419L281 455L225 449L169 437L113 431L56 425L0 443Z" fill="#0056d0"></path><path d="M0 601L56 601L113 601L169 601L225 601L281 601L338 601L394 601L450 601L506 601L563 601L619 601L675 601L731 601L788 601L844 601L900 601L900 545L844 539L788 527L731 533L675 533L619 545L563 527L506 551L450 545L394 539L338 527L281 539L225 527L169 533L113 545L56 533L0 527Z" fill="#0066ff"></path></svg>